# xmcd CD database file
#
# Track frame offsets:
#	183
#	15205
#	35510
#	56390
#	81620
#	109663
#	131148
#	146673
#	166413
#	183528
#
# Disc length: 2702 seconds
#
# Revision: 2
# Processed by: cddbd v1.5.1PL0 Copyright (c) Steve Scherf et al.
# Submitted via: CDex 1.51
#
DISCID=850a8c0a
DTITLE=Louisiana Red - Shugar Hips
DYEAR=1900
DGENRE=Blues
TTITLE0=Louisiana Boogie
TTITLE1=When My Mother Was Livin'
TTITLE2=Ethel Mae
TTITLE3=God Sad News
TTITLE4=Stop Doggin' Me Around
TTITLE5=I'm Crazy 'bout You
TTITLE6=Churchbell
TTITLE7=Shugar Hips
TTITLE8=East Berlin Travel
TTITLE9=Girl Birmingham
EXTD=
EXTT0=
EXTT1=
EXTT2=
EXTT3=
EXTT4=
EXTT5=
EXTT6=
EXTT7=
EXTT8=
EXTT9=
PLAYORDER=
